#define 6e1c1c84d75646a592c9868600c3f7f3c4pFeNAfWK0nGPhL_width 32
#define 6e1c1c84d75646a592c9868600c3f7f3c4pFeNAfWK0nGPhL_height 32
static char 6e1c1c84d75646a592c9868600c3f7f3c4pFeNAfWK0nGPhL_bits[] = {
  0xF0, 0xFF, 0xFF, 0x1F, 0x10, 0x00, 0x00, 0x30, 0x08, 0x00, 0x00, 0x20, 
  0xC8, 0xFD, 0xFF, 0x27, 0x08, 0x00, 0x22, 0x20, 0x18, 0x00, 0x00, 0x20, 
  0x88, 0xF8, 0x3B, 0x20, 0x88, 0x6C, 0x26, 0x20, 0x18, 0x00, 0x00, 0x20, 
  0x08, 0x18, 0x00, 0x20, 0x88, 0x1C, 0x00, 0x20, 0x08, 0x00, 0x00, 0x28, 
  0xC8, 0x1F, 0x00, 0x28, 0x60, 0x30, 0x00, 0x28, 0x30, 0x6F, 0x00, 0x28, 
  0xD0, 0x58, 0x00, 0x2C, 0x58, 0xF0, 0x00, 0x2C, 0x68, 0xA0, 0x00, 0x28, 
  0x28, 0xA0, 0x00, 0x28, 0x68, 0xB0, 0x00, 0x20, 0xFC, 0xFF, 0x01, 0x28, 
  0x04, 0x00, 0x01, 0x28, 0x04, 0x00, 0x01, 0x20, 0x04, 0x0F, 0x01, 0x3A, 
  0x84, 0x09, 0x81, 0x3B, 0x04, 0x0D, 0xC1, 0x18, 0x04, 0x0D, 0x41, 0x0C, 
  0x04, 0x09, 0x41, 0x06, 0x04, 0x07, 0xC1, 0x03, 0x0C, 0x02, 0xC1, 0x01, 
  0x18, 0x80, 0xF9, 0x00, 0xF0, 0x7F, 0x00, 0x00, };
